<?xml version="1.0" encoding="UTF-8"?>
<svg preserveAspectRatio="xMidYMid slice" width="950px" height="950px" xmlns="http://www.w3.org/2000/svg" xmlns:xlink="http://www.w3.org/1999/xlink" viewBox="0 0 527.47 496.16">
  <defs>
    <clipPath id="clip-path">
      <path d="M80.18,217.43A1.74,1.74,0,0,1,81.24,216a5.37,5.37,0,0,1,4.89.05l.49,68.75a5.4,5.4,0,0,0-4.89,0,1.74,1.74,0,0,0-1.06,1.45C80.52,234.5,80.32,269.11,80.18,217.43Z" fill="none"></path>
    </clipPath>
    <clipPath id="clip-path-2">
      <path d="M374.3,277.81a1.78,1.78,0,0,1,1.07-1.46,5.43,5.43,0,0,1,4.89,0l.49,68.76a5.37,5.37,0,0,0-4.89-.05,1.77,1.77,0,0,0-1.07,1.45C374.65,294.88,374.45,329.48,374.3,277.81Z" fill="none"></path>
    </clipPath>
    <clipPath id="clip-path-3">
      <path d="M280.07,330.64a1.75,1.75,0,0,1,1.07-1.45,5.4,5.4,0,0,1,4.89,0l.48,68.76a5.37,5.37,0,0,0-4.89-.05,1.75,1.75,0,0,0-1.06,1.45C280.41,347.71,280.22,382.31,280.07,330.64Z" fill="none"></path>
    </clipPath>
    <clipPath id="clip-path-4">
      <path d="M280.07,302.17a1.77,1.77,0,0,1,1.07-1.45,5.37,5.37,0,0,1,4.89,0l.48,29.94a5.4,5.4,0,0,0-4.89,0,1.76,1.76,0,0,0-1.06,1.45C280.41,280.44,280.22,353.85,280.07,302.17Z" fill="none"></path>
    </clipPath>
    <clipPath id="clip-path-5">
      <path d="M80.18,189a1.76,1.76,0,0,1,1.06-1.45,5.4,5.4,0,0,1,4.89.05l.49,29.94a5.43,5.43,0,0,0-4.89-.05,1.74,1.74,0,0,0-1.06,1.45C80.52,167.23,80.32,240.64,80.18,189Z" fill="none"></path>
    </clipPath>
    <clipPath id="clip-path-6">
      <path d="M374.3,249.34a1.77,1.77,0,0,1,1.07-1.45,5.37,5.37,0,0,1,4.89.05l.49,29.94a5.4,5.4,0,0,0-4.89-.05,1.78,1.78,0,0,0-1.07,1.45C374.65,227.6,374.45,301,374.3,249.34Z" fill="none"></path>
    </clipPath>
    <clipPath id="clip-path-7">
      <path d="M175.25,150.24a2.85,2.85,0,0,0,.68-2.54l14.93-14.85a2.81,2.81,0,0,1-.68,2.54Z" fill="none"></path>
    </clipPath>
    <clipPath id="clip-path-8">
      <path d="M183.44,128.63a3,3,0,0,1,2.73-.64,6.39,6.39,0,0,1,4.69,4.86L175.93,147.7a6.37,6.37,0,0,0-4.69-4.86,2.92,2.92,0,0,0-2.73.64Z" fill="none"></path>
    </clipPath>
    <clipPath id="clip-path-9">
      <path d="M181.76,131.2a2.82,2.82,0,0,0,2.5.82l8.42,9.64a2.85,2.85,0,0,1-2.5-.82C186,136.11,186,135.93,181.76,131.2Z" fill="none"></path>
    </clipPath>
    <clipPath id="clip-path-10">
      <path d="M197.31,134.49a2.92,2.92,0,0,1,.48,2.76,6.38,6.38,0,0,1-5.11,4.41L184.26,132a6.36,6.36,0,0,0,5.11-4.4,2.93,2.93,0,0,0-.48-2.77C193.09,129.58,193.12,129.76,197.31,134.49Z" fill="none"></path>
    </clipPath>
  </defs>
  <title>emergency-treatment</title>
  <g style="isolation:isolate">
    <g id="Layer_2" data-name="Layer 2">
      <path d="M489.6,241.4c-20.24,83.23-107,246.5-214.53,217.89-30.93-8.23-60-33.69-90.5-45.73-27-10.65-57.28-16.17-83.22-29C55,361.61,35.34,320.28,36,269.32,37.32,166.94,114.22,26.44,232,34.18c56.85,3.73,110.27,55.87,162.34,78.62C454.76,139.18,502.07,165.77,489.6,241.4Z" fill="#00a3b2"></path>
      <path d="M126,248.77,68.33,281.3a6.33,6.33,0,0,0-.07,11L272.62,411.16a25.7,25.7,0,0,0,25.88,0l99.33-57.91a6.32,6.32,0,0,0-.21-11L286.43,282.84Z" fill="#e6e6e6" style="mix-blend-mode:multiply"></path>
      <g style="isolation:isolate">
        <path d="M86.62,284.78c1.32.8,1.28,2.07-.1,2.83a5.37,5.37,0,0,1-4.89-.05c-1.32-.79-1.28-2.06.1-2.83A5.4,5.4,0,0,1,86.62,284.78Z" fill="#919191"></path>
        <g style="isolation:isolate">
          <g clip-path="url(#clip-path)">
            <g style="isolation:isolate">
              <path d="M86.62,284.78,86.13,216a3.25,3.25,0,0,0-.56-.28l.48,68.76a5,5,0,0,1,.57.27" fill="#575757"></path>
              <path d="M86.05,284.51l-.48-68.76-.42-.14.49,68.76a2.83,2.83,0,0,1,.41.14" fill="#5b5b5b"></path>
              <path d="M85.64,284.37l-.49-68.76-.36-.08.48,68.75.37.09" fill="#5e5e5e"></path>
              <path d="M85.27,284.28l-.48-68.75a2.14,2.14,0,0,0-.35-.06l.49,68.75.34.06" fill="#616161"></path>
              <path d="M84.93,284.22l-.49-68.75-.33,0,.49,68.76.33,0" fill="#656565"></path>
              <path d="M84.6,284.19l-.49-68.76h-.34l.49,68.75.34,0" fill="#686868"></path>
              <path d="M84.26,284.17l-.49-68.75h-.35l.49,68.75h.35" fill="#6c6c6c"></path>
              <path d="M83.91,284.17l-.49-68.75-.38,0,.49,68.76.38,0" fill="#6f6f6f"></path>
              <path d="M83.53,284.2,83,215.44l-.43.07.49,68.75.43-.06" fill="#727272"></path>
              <path d="M83.1,284.26l-.49-68.75a3.3,3.3,0,0,0-.62.15l.49,68.75a6.23,6.23,0,0,1,.62-.15" fill="#767676"></path>
              <path d="M82.48,284.41,82,215.66a3.6,3.6,0,0,0-.75.32l-.16.09.48,68.76.17-.1a4.23,4.23,0,0,1,.75-.32" fill="#797979"></path>
              <path d="M81.56,284.83l-.48-68.76a2.78,2.78,0,0,0-.4.31l.49,68.76a2.53,2.53,0,0,1,.39-.31" fill="#767676"></path>
              <path d="M81.17,285.14l-.49-68.76a2.19,2.19,0,0,0-.21.23L81,285.37a1.51,1.51,0,0,1,.21-.23" fill="#727272"></path>
              <path d="M81,285.37l-.49-68.76a2.39,2.39,0,0,0-.13.21l.49,68.75a1.13,1.13,0,0,1,.13-.2" fill="#6f6f6f"></path>
              <path d="M80.83,285.57l-.49-68.75a.82.82,0,0,0-.09.19l.49,68.76a.88.88,0,0,1,.09-.2" fill="#6c6c6c"></path>
              <path d="M80.74,285.77,80.25,217a1.46,1.46,0,0,0,0,.2L80.69,286a1.33,1.33,0,0,1,0-.19" fill="#686868"></path>
              <path d="M80.69,286l-.49-68.75a.62.62,0,0,0,0,.19l.49,68.76a.68.68,0,0,1,0-.2" fill="#656565"></path>
              <path d="M80.67,286.16l-.49-68.76v0l.49,68.75v0" fill="#616161"></path>
            </g>
          </g>
        </g>
        <path d="M87.09,217.41a1.31,1.31,0,0,1-.06.38v0a1.46,1.46,0,0,1-.18.35l0,0a2,2,0,0,1-.28.3l-.18.14a2.75,2.75,0,0,1-.33.23,4.63,4.63,0,0,1-.68.29l-.28.08-.31.07a4.51,4.51,0,0,1-.53.09h0c-.2,0-.41,0-.61,0h-.07a5.65,5.65,0,0,1-.59,0h-.07a4.86,4.86,0,0,1-.55-.1l-.11,0-.53-.17a4.68,4.68,0,0,1-.55-.27,1.7,1.7,0,0,1-1-1.38l.49,68.75a1.68,1.68,0,0,0,1,1.38,2.56,2.56,0,0,0,.55.27h0l.42.14.1,0,.11,0,.15,0,.34.05h.13l.21,0,.34,0h.35l.37,0h0l.43-.07.1,0,.3-.07a1.8,1.8,0,0,0,.22-.06l.07,0a3.76,3.76,0,0,0,.68-.29l.16-.09c.07,0,.11-.09.17-.13l.17-.14.06,0a2.19,2.19,0,0,0,.21-.23v0l0,0,.09-.14a.82.82,0,0,0,.09-.19v0a.75.75,0,0,0,0-.16,1.23,1.23,0,0,0,0-.19v0Z" fill="#bababa"></path>
        <path d="M86.13,216c1.32.79,1.28,2.06-.1,2.83a5.4,5.4,0,0,1-4.89-.05c-1.32-.8-1.28-2.07.1-2.83A5.37,5.37,0,0,1,86.13,216Z" fill="#919191"></path>
      </g>
      <g style="isolation:isolate">
        <path d="M380.75,345.16c1.32.8,1.27,2.06-.1,2.83a5.37,5.37,0,0,1-4.89-.05c-1.33-.79-1.28-2.06.1-2.83A5.37,5.37,0,0,1,380.75,345.16Z" fill="#919191"></path>
        <g style="isolation:isolate">
          <g clip-path="url(#clip-path-2)">
            <g style="isolation:isolate">
              <path d="M380.75,345.16l-.49-68.76a5,5,0,0,0-.57-.27l.49,68.76a3,3,0,0,1,.57.27" fill="#575757"></path>
              <path d="M380.18,344.89l-.49-68.76-.41-.14.48,68.76a2.59,2.59,0,0,1,.42.14" fill="#5b5b5b"></path>
              <path d="M379.76,344.75,379.28,276l-.37-.09.49,68.76a2.11,2.11,0,0,1,.36.09" fill="#5e5e5e"></path>
              <path d="M379.4,344.66l-.49-68.76-.34,0,.49,68.75.34.06" fill="#616161"></path>
              <path d="M379.06,344.6l-.49-68.75-.33,0,.49,68.76.33,0" fill="#656565"></path>
              <path d="M378.73,344.57l-.49-68.76-.34,0,.49,68.76.34,0" fill="#686868"></path>
              <path d="M378.39,344.55l-.49-68.76h-.35l.49,68.75h.35" fill="#6c6c6c"></path>
              <path d="M378,344.55l-.49-68.75-.38,0,.49,68.76.38,0" fill="#6f6f6f"></path>
              <path d="M377.66,344.58l-.49-68.76-.43.06.48,68.76a3.32,3.32,0,0,1,.44-.06" fill="#727272"></path>
              <path d="M377.22,344.64l-.48-68.76a6.23,6.23,0,0,0-.62.15l.49,68.76a6,6,0,0,1,.61-.15" fill="#767676"></path>
              <path d="M376.61,344.79,376.12,276a5.13,5.13,0,0,0-.75.32l-.17.1.49,68.76.17-.1a4.23,4.23,0,0,1,.75-.32" fill="#797979"></path>
              <path d="M375.69,345.21l-.49-68.76a2.53,2.53,0,0,0-.39.31l.48,68.76a3.25,3.25,0,0,1,.4-.31" fill="#767676"></path>
              <path d="M375.29,345.52l-.48-68.76a2.19,2.19,0,0,0-.21.23l.49,68.76a2.2,2.2,0,0,1,.2-.23" fill="#727272"></path>
              <path d="M375.09,345.75,374.6,277a1.2,1.2,0,0,0-.13.21L375,346a1.43,1.43,0,0,1,.14-.2" fill="#6f6f6f"></path>
              <path d="M375,346l-.48-68.75a.82.82,0,0,0-.09.19l.49,68.76a1.67,1.67,0,0,1,.08-.2" fill="#6c6c6c"></path>
              <path d="M374.87,346.15l-.49-68.76a.73.73,0,0,0-.05.2l.48,68.75a1.39,1.39,0,0,1,.06-.19" fill="#686868"></path>
              <path d="M374.81,346.34l-.48-68.75a.62.62,0,0,0,0,.19l.48,68.76a1.36,1.36,0,0,1,0-.2" fill="#656565"></path>
              <path d="M374.79,346.54l-.48-68.76v0l.49,68.75v0" fill="#616161"></path>
            </g>
          </g>
        </g>
        <path d="M381.22,277.79a1.19,1.19,0,0,1-.06.37v0a1.4,1.4,0,0,1-.18.34l0,0a1.32,1.32,0,0,1-.28.3l-.17.14a3.88,3.88,0,0,1-.33.23,4.61,4.61,0,0,1-.68.28,2.46,2.46,0,0,1-.29.09l-.3.07a4.68,4.68,0,0,1-.54.09h0c-.21,0-.41,0-.62,0h-.06l-.59,0H377a4.86,4.86,0,0,1-.55-.1l-.11,0a3.27,3.27,0,0,1-.53-.17,3.1,3.1,0,0,1-.55-.26,1.74,1.74,0,0,1-1-1.38l.49,68.75a1.67,1.67,0,0,0,1,1.38,3.12,3.12,0,0,0,.55.27h0l.42.14.1,0,.1,0,.16,0a2,2,0,0,0,.34.06h.13l.21,0h.69l.37,0h0a3.18,3.18,0,0,0,.43-.06l.1,0,.3-.08.21-.05.08,0a3.76,3.76,0,0,0,.68-.29l.16-.1.16-.12a1.41,1.41,0,0,0,.18-.14l.06,0,.21-.23v0l0,0,.09-.14.09-.19v0c0-.05,0-.11,0-.16a1.23,1.23,0,0,0,0-.2v0Z" fill="#bababa"></path>
        <path d="M380.26,276.4c1.32.8,1.28,2.07-.1,2.84a5.43,5.43,0,0,1-4.89-.05c-1.32-.8-1.28-2.07.1-2.84A5.43,5.43,0,0,1,380.26,276.4Z" fill="#919191"></path>
      </g>
      <g style="isolation:isolate">
        <path d="M286.51,398c1.33.8,1.28,2.06-.1,2.83a5.37,5.37,0,0,1-4.89-.05c-1.32-.79-1.27-2.06.1-2.83A5.37,5.37,0,0,1,286.51,398Z" fill="#919191"></path>
        <g style="isolation:isolate">
          <g clip-path="url(#clip-path-3)">
            <g style="isolation:isolate">
              <path d="M286.51,398,286,329.23a5,5,0,0,0-.57-.27l.49,68.76a3.22,3.22,0,0,1,.56.27" fill="#575757"></path>
              <path d="M286,397.72,285.46,329l-.42-.14.49,68.76a3.45,3.45,0,0,1,.42.14" fill="#5b5b5b"></path>
              <path d="M285.53,397.58,285,328.82l-.36-.09.49,68.76.36.09" fill="#5e5e5e"></path>
              <path d="M285.17,397.49l-.49-68.76-.34-.05.49,68.75.34.06" fill="#616161"></path>
              <path d="M284.83,397.43l-.49-68.75-.34,0,.49,68.76.34,0" fill="#656565"></path>
              <path d="M284.49,397.4,284,328.64l-.33,0,.49,68.76.33,0" fill="#686868"></path>
              <path d="M284.16,397.38l-.49-68.76h-.35l.48,68.75h.36" fill="#6c6c6c"></path>
              <path d="M283.8,397.38l-.48-68.75-.38,0,.48,68.76.38,0" fill="#6f6f6f"></path>
              <path d="M283.42,397.41l-.48-68.76-.44.06.49,68.76.43-.06" fill="#727272"></path>
              <path d="M283,397.47l-.49-68.76a4.21,4.21,0,0,0-.61.16l.49,68.75a5.44,5.44,0,0,1,.61-.15" fill="#767676"></path>
              <path d="M282.38,397.62l-.49-68.75a3.6,3.6,0,0,0-.75.32l-.17.09.49,68.76.16-.1a4.33,4.33,0,0,1,.76-.32" fill="#797979"></path>
              <path d="M281.46,398,281,329.28a3.25,3.25,0,0,0-.4.31l.49,68.76a2.64,2.64,0,0,1,.4-.31" fill="#767676"></path>
              <path d="M281.06,398.35l-.49-68.76a2.05,2.05,0,0,0-.2.23l.48,68.76a1.51,1.51,0,0,1,.21-.23" fill="#727272"></path>
              <path d="M280.85,398.58l-.48-68.76c-.05.07-.1.14-.14.21l.49,68.75a1.37,1.37,0,0,1,.13-.2" fill="#6f6f6f"></path>
              <path d="M280.72,398.78,280.23,330l-.09.19.49,68.76.09-.2" fill="#6c6c6c"></path>
              <path d="M280.63,399l-.49-68.76a1.46,1.46,0,0,0-.05.2l.49,68.75a1.33,1.33,0,0,1,.05-.19" fill="#686868"></path>
              <path d="M280.58,399.17l-.49-68.75a1.23,1.23,0,0,0,0,.19l.49,68.76a1.36,1.36,0,0,1,0-.2" fill="#656565"></path>
              <path d="M280.56,399.37l-.49-68.76v0l.49,68.75v0" fill="#616161"></path>
            </g>
          </g>
        </g>
        <path d="M287,330.62a1,1,0,0,1-.07.37v0a1.4,1.4,0,0,1-.18.34l0,0a1.32,1.32,0,0,1-.28.3,1.24,1.24,0,0,1-.18.14,2.13,2.13,0,0,1-.33.23,4.1,4.1,0,0,1-.67.29l-.29.08-.3.07-.54.09h0a6.08,6.08,0,0,1-.61,0h-.06c-.2,0-.4,0-.6,0h-.06a5,5,0,0,1-.56-.1l-.1,0-.53-.17A4.15,4.15,0,0,1,281,332a1.7,1.7,0,0,1-1-1.38l.49,68.75a1.68,1.68,0,0,0,1,1.38,2.81,2.81,0,0,0,.55.27h0l.42.14.1,0,.1,0,.16,0a1.86,1.86,0,0,0,.34.06h.12l.21,0h.69l.37,0h0l.44-.07.1,0,.3-.08.21-.05.07,0a3.76,3.76,0,0,0,.68-.29l.17-.09.16-.13c.06-.05.13-.09.18-.14l.06,0c.07-.08.14-.15.2-.23l0,0,0,0,.09-.14a1.54,1.54,0,0,0,.08-.19v0a.75.75,0,0,0,0-.16,1.23,1.23,0,0,0,0-.19v0Z" fill="#bababa"></path>
        <path d="M286,329.23c1.32.8,1.27,2.07-.11,2.84A5.4,5.4,0,0,1,281,332c-1.32-.8-1.27-2.07.11-2.83A5.4,5.4,0,0,1,286,329.23Z" fill="#919191"></path>
      </g>
      <polygon points="178.61 159.07 73.38 220.31 283.84 339.34 389.5 278.96 178.61 159.07" fill="#a8a8a8"></polygon>
      <polygon points="73.38 220.31 73.38 225.48 283.84 345.81 283.84 339.34 73.38 220.31" fill="#cfcfcf"></polygon>
      <polygon points="389.5 278.96 283.84 339.34 283.84 345.81 389.5 286.72 389.5 278.96" fill="#919191"></polygon>
      <g style="isolation:isolate">
        <path d="M286.51,330.71c1.33.8,1.28,2.07-.1,2.83a5.4,5.4,0,0,1-4.89,0c-1.32-.8-1.27-2.07.1-2.84A5.4,5.4,0,0,1,286.51,330.71Z" fill="#919191"></path>
        <g style="isolation:isolate">
          <g clip-path="url(#clip-path-4)">
            <g style="isolation:isolate">
              <path d="M286.51,330.71,286,300.77a3.72,3.72,0,0,0-.57-.27l.49,29.94a4.15,4.15,0,0,1,.56.27" fill="#575757"></path>
              <path d="M286,330.44l-.49-29.94a2.59,2.59,0,0,0-.42-.14l.49,29.94.42.14" fill="#5b5b5b"></path>
              <path d="M285.53,330.3,285,300.36l-.36-.09.49,29.94.36.09" fill="#5e5e5e"></path>
              <path d="M285.17,330.21l-.49-29.94-.34-.06.49,29.94.34.06" fill="#616161"></path>
              <path d="M284.83,330.15l-.49-29.94-.34,0,.49,29.94.34,0" fill="#656565"></path>
              <path d="M284.49,330.12,284,300.18l-.33,0,.49,29.94.33,0" fill="#686868"></path>
              <path d="M284.16,330.1l-.49-29.94h-.35l.48,29.95h.36" fill="#6c6c6c"></path>
              <path d="M283.8,330.11l-.48-29.95-.38,0,.48,29.94.38,0" fill="#6f6f6f"></path>
              <path d="M283.42,330.13l-.48-29.94c-.15,0-.29,0-.44.06l.49,29.94.43-.06" fill="#727272"></path>
              <path d="M283,330.19l-.49-29.94a6,6,0,0,0-.61.15l.49,29.94a5.44,5.44,0,0,1,.61-.15" fill="#767676"></path>
              <path d="M282.38,330.34l-.49-29.94a4.23,4.23,0,0,0-.75.32l-.17.1.49,29.94.16-.1a4.33,4.33,0,0,1,.76-.32" fill="#797979"></path>
              <path d="M281.46,330.76,281,300.82a3.25,3.25,0,0,0-.4.31l.49,29.94a2.64,2.64,0,0,1,.4-.31" fill="#767676"></path>
              <path d="M281.06,331.07l-.49-29.94a1.43,1.43,0,0,0-.2.23l.48,29.94a1.51,1.51,0,0,1,.21-.23" fill="#727272"></path>
              <path d="M280.85,331.3l-.48-29.94a1.43,1.43,0,0,0-.14.2l.49,29.94.13-.2" fill="#6f6f6f"></path>
              <path d="M280.72,331.5l-.49-29.94-.09.2.49,29.94.09-.2" fill="#6c6c6c"></path>
              <path d="M280.63,331.7l-.49-29.94a1.33,1.33,0,0,0-.05.19l.49,29.94a1.33,1.33,0,0,1,.05-.19" fill="#686868"></path>
              <path d="M280.58,331.89,280.09,302a1.36,1.36,0,0,0,0,.2l.49,29.94a1.5,1.5,0,0,1,0-.2" fill="#656565"></path>
              <path d="M280.56,332.09l-.49-29.94v0l.49,29.94v0" fill="#616161"></path>
            </g>
          </g>
        </g>
        <path d="M287,302.15a1,1,0,0,1-.07.38v0a1.29,1.29,0,0,1-.18.35l0,0a1.92,1.92,0,0,1-.28.3c-.05.05-.12.09-.18.14a3.15,3.15,0,0,1-.33.22,3.39,3.39,0,0,1-.67.29L285,304l-.3.08a5,5,0,0,1-.54.08h0c-.2,0-.4,0-.61,0h-.06a4,4,0,0,1-.6,0h-.06l-.56-.1-.1,0a4.68,4.68,0,0,1-.53-.17,3.22,3.22,0,0,1-.56-.27,1.68,1.68,0,0,1-1-1.38l.49,29.94a1.7,1.7,0,0,0,1,1.39,3.47,3.47,0,0,0,.55.26h0l.42.14.1,0,.1,0,.16,0,.34.05h.12l.21,0,.34,0h.35l.37,0h0l.44-.06.1,0,.3-.07.21-.06a.15.15,0,0,0,.07,0,3.76,3.76,0,0,0,.68-.29l.17-.09.16-.13c.06-.05.13-.09.18-.14l.06,0c.07-.08.14-.15.2-.23l0,0,0,0,.09-.14a1.54,1.54,0,0,0,.08-.19v0a.75.75,0,0,0,0-.16,1.23,1.23,0,0,0,0-.19v0Z" fill="#bababa"></path>
        <path d="M286,300.77c1.32.8,1.27,2.06-.11,2.83a5.37,5.37,0,0,1-4.89-.05c-1.32-.79-1.27-2.06.11-2.83A5.37,5.37,0,0,1,286,300.77Z" fill="#919191"></path>
      </g>
      <g style="isolation:isolate">
        <path d="M86.62,217.5c1.32.8,1.28,2.07-.1,2.84a5.43,5.43,0,0,1-4.89-.05c-1.32-.8-1.28-2.07.1-2.84A5.43,5.43,0,0,1,86.62,217.5Z" fill="#919191"></path>
        <g style="isolation:isolate">
          <g clip-path="url(#clip-path-5)">
            <g style="isolation:isolate">
              <path d="M86.62,217.5l-.49-29.94a3.22,3.22,0,0,0-.56-.27l.48,29.94a5,5,0,0,1,.57.27" fill="#575757"></path>
              <path d="M86.05,217.23l-.48-29.94a3.45,3.45,0,0,0-.42-.14l.49,29.94.41.14" fill="#5b5b5b"></path>
              <path d="M85.64,217.09l-.49-29.94-.36-.09L85.27,217l.37.09" fill="#5e5e5e"></path>
              <path d="M85.27,217l-.48-29.94-.35-.06L84.93,217l.34.05" fill="#616161"></path>
              <path d="M84.93,217,84.44,187l-.33,0,.49,29.94.33,0" fill="#656565"></path>
              <path d="M84.6,216.91,84.11,187l-.34,0,.49,29.94.34,0" fill="#686868"></path>
              <path d="M84.26,216.89,83.77,187h-.35l.49,30h.35" fill="#6c6c6c"></path>
              <path d="M83.91,216.9l-.49-30L83,187l.49,29.94.38,0" fill="#6f6f6f"></path>
              <path d="M83.53,216.92,83,187l-.43.06L83.1,217l.43-.06" fill="#727272"></path>
              <path d="M83.1,217,82.61,187a6.23,6.23,0,0,0-.62.15l.49,29.94a6.23,6.23,0,0,1,.62-.15" fill="#767676"></path>
              <path d="M82.48,217.13,82,187.19a4.23,4.23,0,0,0-.75.32l-.16.1.48,29.94.17-.1a5.13,5.13,0,0,1,.75-.32" fill="#797979"></path>
              <path d="M81.56,217.55l-.48-29.94a2.22,2.22,0,0,0-.4.31l.49,29.94a2.53,2.53,0,0,1,.39-.31" fill="#767676"></path>
              <path d="M81.17,217.86l-.49-29.94a1.51,1.51,0,0,0-.21.23L81,218.09a2.19,2.19,0,0,1,.21-.23" fill="#727272"></path>
              <path d="M81,218.09l-.49-29.94-.13.2.49,29.94a1.67,1.67,0,0,1,.13-.2" fill="#6f6f6f"></path>
              <path d="M80.83,218.29l-.49-29.94a.88.88,0,0,0-.09.2l.49,29.94a.88.88,0,0,1,.09-.2" fill="#6c6c6c"></path>
              <path d="M80.74,218.49l-.49-29.94a1.33,1.33,0,0,0,0,.19l.49,29.94a1.33,1.33,0,0,1,0-.19" fill="#686868"></path>
              <path d="M80.69,218.68l-.49-29.94a.68.68,0,0,0,0,.2l.49,29.94a.71.71,0,0,1,0-.2" fill="#656565"></path>
              <path d="M80.67,218.88l-.49-29.94v0l.49,29.94v0" fill="#616161"></path>
            </g>
          </g>
        </g>
        <path d="M87.09,188.94a1.21,1.21,0,0,1-.06.38v0a1.29,1.29,0,0,1-.18.35s0,0,0,0a3.84,3.84,0,0,1-.28.3l-.18.14a2.7,2.7,0,0,1-.33.22,3.76,3.76,0,0,1-.68.29l-.28.09-.31.07a4.51,4.51,0,0,1-.53.09h0c-.2,0-.41,0-.61,0h-.07a5.68,5.68,0,0,1-.59,0h-.07l-.55-.1-.11,0a3.27,3.27,0,0,1-.53-.17,2.81,2.81,0,0,1-.55-.27,1.68,1.68,0,0,1-1-1.38l.49,29.94a1.7,1.7,0,0,0,1,1.39,3.1,3.1,0,0,0,.55.26h0l.42.14.1,0,.11,0,.15,0,.34.05h.13l.21,0,.34,0h.35l.37,0h0l.43-.06.1,0,.3-.07.22-.05.07,0a4.61,4.61,0,0,0,.68-.28l.16-.1c.07,0,.11-.09.17-.13L87,220l.06,0a2.19,2.19,0,0,0,.21-.23s0,0,0,0l0,0,.09-.14a.82.82,0,0,0,.09-.19v0a.75.75,0,0,0,0-.16,1.23,1.23,0,0,0,0-.19v0Z" fill="#bababa"></path>
        <path d="M86.13,187.56c1.32.8,1.28,2.07-.1,2.83a5.37,5.37,0,0,1-4.89,0c-1.32-.79-1.28-2.06.1-2.83A5.4,5.4,0,0,1,86.13,187.56Z" fill="#919191"></path>
      </g>
      <g style="isolation:isolate">
        <path d="M380.75,277.88c1.32.8,1.27,2.07-.1,2.83a5.37,5.37,0,0,1-4.89,0c-1.33-.79-1.28-2.06.1-2.83A5.4,5.4,0,0,1,380.75,277.88Z" fill="#919191"></path>
        <g style="isolation:isolate">
          <g clip-path="url(#clip-path-6)">
            <g style="isolation:isolate">
              <path d="M380.75,277.88l-.49-29.94a3,3,0,0,0-.57-.27l.49,29.94a3.72,3.72,0,0,1,.57.27" fill="#575757"></path>
              <path d="M380.18,277.61l-.49-29.94a2.83,2.83,0,0,0-.41-.14l.48,29.94a2.59,2.59,0,0,1,.42.14" fill="#5b5b5b"></path>
              <path d="M379.76,277.47l-.48-29.94a2.22,2.22,0,0,0-.37-.09l.49,29.94.36.09" fill="#5e5e5e"></path>
              <path d="M379.4,277.38l-.49-29.94-.34-.06.49,29.94.34.06" fill="#616161"></path>
              <path d="M379.06,277.32l-.49-29.94-.33,0,.49,29.94.33,0" fill="#656565"></path>
              <path d="M378.73,277.29l-.49-29.94-.34,0,.49,29.94.34,0" fill="#686868"></path>
              <path d="M378.39,277.27l-.49-29.94h-.35l.49,29.94h.35" fill="#6c6c6c"></path>
              <path d="M378,277.27l-.49-29.94-.38,0,.49,29.94.38,0" fill="#6f6f6f"></path>
              <path d="M377.66,277.3l-.49-29.94a3,3,0,0,0-.43.06l.48,29.94.44-.06" fill="#727272"></path>
              <path d="M377.22,277.36l-.48-29.94a6.23,6.23,0,0,0-.62.15l.49,29.94a6,6,0,0,1,.61-.15" fill="#767676"></path>
              <path d="M376.61,277.51l-.49-29.94a4.23,4.23,0,0,0-.75.32l-.17.1.49,29.94.17-.1a4.23,4.23,0,0,1,.75-.32" fill="#797979"></path>
              <path d="M375.69,277.93,375.2,248a2.53,2.53,0,0,0-.39.31l.48,29.94a3.25,3.25,0,0,1,.4-.31" fill="#767676"></path>
              <path d="M375.29,278.24l-.48-29.94a1.51,1.51,0,0,0-.21.23l.49,29.94a2.2,2.2,0,0,1,.2-.23" fill="#727272"></path>
              <path d="M375.09,278.47l-.49-29.94a.86.86,0,0,0-.13.2l.48,29.94a2.43,2.43,0,0,1,.14-.2" fill="#6f6f6f"></path>
              <path d="M375,278.67l-.48-29.94a.88.88,0,0,0-.09.2l.49,29.94a1.67,1.67,0,0,1,.08-.2" fill="#6c6c6c"></path>
              <path d="M374.87,278.87l-.49-29.94a.67.67,0,0,0-.05.19l.48,29.94a1.39,1.39,0,0,1,.06-.19" fill="#686868"></path>
              <path d="M374.81,279.06l-.48-29.94a.68.68,0,0,0,0,.2l.48,29.94a1.36,1.36,0,0,1,0-.2" fill="#656565"></path>
              <path d="M374.79,279.26l-.48-29.94v0l.49,29.94v0" fill="#616161"></path>
            </g>
          </g>
        </g>
        <path d="M381.22,249.32a1.26,1.26,0,0,1-.06.38v0a1.29,1.29,0,0,1-.18.35l0,0a1.92,1.92,0,0,1-.28.3l-.17.14-.33.22a3.76,3.76,0,0,1-.68.29l-.29.08-.3.08a4.68,4.68,0,0,1-.54.08h0c-.21,0-.41,0-.62,0h-.06a3.81,3.81,0,0,1-.59,0H377l-.55-.1-.11,0a4.68,4.68,0,0,1-.53-.17,3.12,3.12,0,0,1-.55-.27,1.71,1.71,0,0,1-1-1.38l.49,29.94a1.67,1.67,0,0,0,1,1.38,2.56,2.56,0,0,0,.55.27h0c.14.05.27.1.42.14l.1,0,.1,0,.16,0,.34.05h.13l.21,0h.69l.37,0h0l.43-.07.1,0,.3-.07.21-.06.08,0a3.76,3.76,0,0,0,.68-.29l.16-.09.16-.13a1.41,1.41,0,0,0,.18-.14l.06,0a2.19,2.19,0,0,0,.21-.23v0l0,0,.09-.14.09-.19v0c0-.05,0-.1,0-.16a1.23,1.23,0,0,0,0-.19v0Z" fill="#bababa"></path>
        <path d="M380.26,247.94c1.32.8,1.28,2.06-.1,2.83a5.37,5.37,0,0,1-4.89-.05c-1.32-.79-1.28-2.06.1-2.83A5.37,5.37,0,0,1,380.26,247.94Z" fill="#919191"></path>
      </g>
      <path d="M152.36,75.35c5.49-3.24,29.59-4.21,34.44-1.46s8.57,23.78,4.37,34.77-1.29,35.91-1.29,35.91l-34.94-3.72c-3.07-11-3.88-21.84-3.23-27.17S152.36,75.35,152.36,75.35Z" fill="#f5f5f5"></path>
      <path d="M180.12,94.38a26.88,26.88,0,0,0,1.46-21.74,88.73,88.73,0,0,0-14.85-.09C164.86,78.41,172.2,89.4,180.12,94.38Z" fill="#59d6de"></path>
      <path d="M170.31,63.86a19.38,19.38,0,0,1-1.62,10.89c2.8,6.8,12,8.74,12.08,4.32a44.4,44.4,0,0,0-.87-8.95Z" fill="#ebc096"></path>
      <polygon points="178.61 118.96 73.38 180.2 283.84 299.23 389.5 238.85 178.61 118.96" fill="#e3e3e3"></polygon>
      <path d="M203.62,182.36l-44.68,27.92a3.75,3.75,0,0,0,.15,6.44L197,238a13.05,13.05,0,0,0,13.49-.41l66.18-42.72a3.74,3.74,0,0,0-.09-6.35l-23.12-13.94Z" fill="#e6e6e6" style="mix-blend-mode:multiply"></path>
      <path d="M255.38,159.28c6.14-3.66.32-10.78-4.32-6.25,1.4-7.66,13.7-8.95,17.25.43s-11.43,17.25-11.43,17.25Z" fill="#ccb07c"></path>
      <path d="M262.17,166.94c6.79,9.7,2.15,25.23-5.72,28.68s-11.64,9.81-12.5,10.46-3,0-2.81-1c-4.31,2-6.79-.87-4.63-4.21.64-3.45.75-4.74,1.08-5.07S262.17,166.94,262.17,166.94Z" fill="#d7b983"></path>
      <path d="M184,188.72c-2.34,3.72-9.38,15.28-11.4,16.17s-2.75,1.7-2.83,4S171,214.59,173,214c3,2.1,4.69,1.13,5.41.08,3.64,1.45,5.26.08,6.55-3.4s4.69-9.05,8.57-7.52,6.55,7,2.35,10.76-5.9,6.22-5.58,9.13,3.4,3.56,3.64,4.21c1.45,3.15,5.34,3,7.36,1.7,4,.89,6.87-.57,7.44-3.32s1.05-12.21,4.53-15.52S220.68,201,229.5,200s26.36-3.8,32.83-14.72S264,163.73,252.87,155s-30.81,7.44-33.24,8.57S184,188.72,184,188.72Z" fill="#fad598"></path>
      <path d="M194.78,160.36c-.75-3.23,1-9,5.07-9.81s7.65-7.55,10.67-6.36,1.3,4.53,1.19,6.9.32,9.38.32,9.38Z" fill="#e6c68c"></path>
      <path d="M219.47,162.52c-6.38-4.07-18.44-6.58-22.64-3.88s-5.5,11.75-8.73,15.31-7.55,4.31-6.9,9.7,4.52,7.55,7.76,7.76,7.76,5.72,14.23,6.26,14.45-3.67,15.74-12.29S228.1,168,219.47,162.52Z" fill="#fad598"></path>
      <path d="M217.85,164.89c-1.18,6-4,10.89-2.48,14.56s.11,9.59-2.8,13.58-19.41,3.88-23-7.22c-1.4,4.08-5.93,3.65-8-.11a8.08,8.08,0,0,0,7.31,5.71c3.23.22,7.76,5.72,14.23,6.26s14.45-3.67,15.74-12.29c.61-4,2.65-8.1,3.77-11.83C220.13,168.65,217.85,164.89,217.85,164.89Z" fill="#e6e6e6" style="mix-blend-mode:multiply"></path>
      <path d="M215.67,160.68c2.48-1.83,8.47-6.36,10.08-2.21s-.38,7.66,3.88,10.19,3.78,5.83,1.94,10-1.34,12.29-6.09,9.81-9.65-12.56-8.25-18.6S217.72,160.9,215.67,160.68Z" fill="#e6c68c"></path>
      <path d="M186.37,179.88s6.15-6.58,9.65-4.53-.32,9.27-.32,9.27Z" fill="#e6c68c"></path>
      <path d="M186.7,179.93c-2.2-.14,2.31,6.74,3.12,6.42s6.74-1,5.93-2.27S190.15,180.15,186.7,179.93Z" fill="#ad9569"></path>
      <path d="M188.1,205.21v0c1.52-1.74,3.4-2.85,5.4-2.06,3.52,1.39,6,6,3.34,9.64,3.94-2.88,3.7-8.32,1.71-10.1S190.9,201,188.1,205.21Z" fill="#e6e6e6" style="mix-blend-mode:multiply"></path>
      <path d="M224.43,198.91c-1.45,1.94-10.89,9.59-13,11s-2.59,8.74-2.91,11.59-2.8,7.77-6.09,3.4c-1.94,5.07-7.39,4.42-7.82.7-2,1-4.07-1.14-4.37-3.58a6.38,6.38,0,0,0,0,1.07c.32,2.92,3.4,3.56,3.64,4.21,1.45,3.15,5.34,3,7.36,1.7,4,.89,6.87-.57,7.44-3.32s1.05-12.21,4.53-15.52S220.68,201,229.5,200c5-.6,12.75-1.74,19.73-4.58C242.13,197.76,227.59,200,224.43,198.91Z" fill="#e6e6e6" style="mix-blend-mode:multiply"></path>
      <path d="M225.75,158.47a2.58,2.58,0,0,0-1-1.31c1.52,1.65,2.05,6.19,1.48,9.35s-.7,11.16.27,10,.86-6.57,1.08-8c.12-.79.68-.74,1.15-.55C225.69,165.54,227.24,162.28,225.75,158.47Z" fill="#e6e6e6" style="mix-blend-mode:multiply"></path>
      <path d="M210.58,139.88c-1.86,1.94-1.54,3.88-3.16,5.17s-3.47,1.13-3.64,2.1,3.24,1,4.94,0,3.15,2.62,3,3.94-.57,6.09.16,5.85,2.83-4.13,4.29-5.74,2.26-3.56.89-6.71a46.13,46.13,0,0,1-2-5.5Z" fill="#ffd0a2"></path>
      <path d="M191.94,106c3.45,3.84,7.62,8.39,8.45,9.5,1.45,1.94,7.76,24.09,9.05,25.55a8.94,8.94,0,0,1,6.15-.65s-2.59-27.09-3.72-29.84S190.12,76.8,187.94,74.86C191,85.43,193.52,96.3,191.94,106Z" fill="#fff"></path>
      <g style="isolation:isolate">
        <path d="M175.93,147.7c.35,2.22-1.17,3.64-3.41,3.18a6.39,6.39,0,0,1-4.69-4.86c-.35-2.22,1.17-3.64,3.41-3.18A6.37,6.37,0,0,1,175.93,147.7Z" fill="#dbb38b"></path>
        <g style="isolation:isolate">
          <g clip-path="url(#clip-path-7)">
            <g style="isolation:isolate">
              <path d="M175.25,150.24l14.93-14.85a2.81,2.81,0,0,0,.68-2.54L175.93,147.7a2.85,2.85,0,0,1-.68,2.54" fill="#856c54"></path>
            </g>
          </g>
        </g>
        <g style="isolation:isolate">
          <g clip-path="url(#clip-path-8)">
            <g style="isolation:isolate">
              <path d="M175.93,147.7l14.93-14.85a4.44,4.44,0,0,0-.22-.87L175.7,146.82a4.56,4.56,0,0,1,.23.88" fill="#856c54"></path>
              <path d="M175.7,146.82,190.64,132a4.11,4.11,0,0,0-.25-.57l-14.93,14.85a5.55,5.55,0,0,1,.24.56" fill="#8a7057"></path>
              <path d="M175.46,146.26l14.93-14.85a4.09,4.09,0,0,0-.25-.46L175.21,145.8c.09.15.17.3.25.46" fill="#8f745b"></path>
              <path d="M175.21,145.8,190.14,131c-.08-.14-.17-.27-.26-.4L175,145.4c.09.13.18.26.26.4" fill="#94795e"></path>
              <path d="M175,145.4l14.93-14.85c-.09-.13-.18-.25-.28-.37L174.66,145c.1.12.2.24.29.37" fill="#997d61"></path>
              <path d="M174.66,145l14.94-14.85c-.1-.12-.2-.24-.31-.35l-14.94,14.85c.11.11.21.23.31.35" fill="#9e8164"></path>
              <path d="M174.35,144.68l14.94-14.85c-.11-.12-.23-.23-.35-.34L174,144.34c.12.11.23.22.34.34" fill="#a38568"></path>
              <path d="M174,144.34l14.93-14.85a3.26,3.26,0,0,0-.4-.34L173.61,144c.14.11.27.23.4.35" fill="#a8896b"></path>
              <path d="M173.61,144l14.93-14.84a4.41,4.41,0,0,0-.49-.36l-14.93,14.85c.17.11.33.23.49.35" fill="#ad8d6e"></path>
              <path d="M173.12,143.64l14.93-14.85a6.52,6.52,0,0,0-.77-.43l-14.94,14.85a5.93,5.93,0,0,1,.78.43" fill="#b39271"></path>
              <path d="M172.34,143.21l14.94-14.85a5.57,5.57,0,0,0-1.11-.37l-.27,0L171,142.79l.27.05a5.09,5.09,0,0,1,1.1.37" fill="#b89675"></path>
              <path d="M171,142.79,185.9,128a3.86,3.86,0,0,0-.75,0l-14.93,14.85a4.89,4.89,0,0,1,.75,0" fill="#b39271"></path>
              <path d="M170.22,142.76l14.93-14.85a2.42,2.42,0,0,0-.47.07l-14.93,14.84a3.35,3.35,0,0,1,.47-.06" fill="#ad8d6e"></path>
              <path d="M169.75,142.82,184.68,128a2.54,2.54,0,0,0-.37.1l-14.93,14.85.37-.11" fill="#a8896b"></path>
              <path d="M169.38,142.93l14.93-14.85-.31.14-14.93,14.85.31-.14" fill="#a38568"></path>
              <path d="M169.07,143.07,184,128.22a2.61,2.61,0,0,0-.28.17l-14.93,14.85a1.89,1.89,0,0,1,.28-.17" fill="#9e8164"></path>
              <path d="M168.79,143.24l14.93-14.85-.25.21-14.93,14.85a2.76,2.76,0,0,1,.25-.21" fill="#997d61"></path>
              <path d="M168.54,143.45l14.93-14.85,0,0-14.93,14.85,0,0" fill="#94795e"></path>
            </g>
          </g>
        </g>
        <path d="M189.68,135.77l0,0a2.32,2.32,0,0,1-.59.22l-.07,0a3,3,0,0,1-.62.08l-.33,0a4.07,4.07,0,0,1-.59-.06,5,5,0,0,1-1-.33l-.38-.19a3.59,3.59,0,0,1-.38-.21c-.21-.13-.42-.27-.62-.42h0q-.33-.27-.63-.57l-.06-.06a6.31,6.31,0,0,1-.53-.63l-.06-.08a6.42,6.42,0,0,1-.41-.65l-.08-.14A5.83,5.83,0,0,1,183,132a5.06,5.06,0,0,1-.22-.85,2.85,2.85,0,0,1,.68-2.54l-14.93,14.85a2.83,2.83,0,0,0-.68,2.54,4.25,4.25,0,0,0,.22.85v0a3.61,3.61,0,0,0,.24.57s0,.09.07.13,0,.09.07.13.07.14.11.2.17.27.26.4l.05.06.06.08a2,2,0,0,0,.18.23c.09.12.2.24.3.35l0,.05.06.06.24.23a4.32,4.32,0,0,0,.39.34h0c.16.12.32.24.49.35l.13.07c.12.08.25.14.38.21s.17.11.26.15l.11,0a4.72,4.72,0,0,0,1,.34l.27.05h.31a1.93,1.93,0,0,0,.34,0h.1a3.55,3.55,0,0,0,.47-.06l.05,0,.07,0,.25-.07.31-.14h0l0,0,.23-.14.25-.21,0,0,14.93-14.85A2.28,2.28,0,0,1,189.68,135.77Z" fill="#1db9d1"></path>
        <path d="M190.86,132.85c.36,2.22-1.17,3.64-3.41,3.18a6.4,6.4,0,0,1-4.69-4.86c-.35-2.22,1.18-3.64,3.41-3.18A6.39,6.39,0,0,1,190.86,132.85Z" fill="#1ab5bd"></path>
      </g>
      <g style="isolation:isolate">
        <path d="M184.26,132c-2.23.23-3.57-1.37-3-3.58a6.39,6.39,0,0,1,5.11-4.41c2.24-.23,3.57,1.38,3,3.59A6.36,6.36,0,0,1,184.26,132Z" fill="#dbb38b"></path>
        <g style="isolation:isolate">
          <g clip-path="url(#clip-path-9)">
            <g style="isolation:isolate">
              <path d="M181.76,131.2l8.42,9.64a2.85,2.85,0,0,0,2.5.82L184.26,132a2.82,2.82,0,0,1-2.5-.82" fill="#856c54"></path>
            </g>
          </g>
        </g>
        <g style="isolation:isolate">
          <g clip-path="url(#clip-path-10)">
            <g style="isolation:isolate">
              <path d="M184.26,132l8.42,9.64a4.44,4.44,0,0,0,.88-.18l-8.42-9.63a5.26,5.26,0,0,1-.88.17" fill="#856c54"></path>
              <path d="M185.14,131.85l8.42,9.63c.2-.06.39-.13.59-.21l-8.42-9.63c-.2.08-.39.15-.59.21" fill="#8a7057"></path>
              <path d="M185.73,131.64l8.42,9.63.47-.22-8.42-9.64-.47.23" fill="#8f745b"></path>
              <path d="M186.2,131.41l8.42,9.64.41-.24-8.42-9.64a3.38,3.38,0,0,1-.41.24" fill="#94795e"></path>
              <path d="M186.61,131.17l8.42,9.64.39-.26L187,130.91l-.39.26" fill="#997d61"></path>
              <path d="M187,130.91l8.42,9.64.37-.29-8.42-9.64-.37.29" fill="#9e8164"></path>
              <path d="M187.37,130.62l8.42,9.64.35-.33-8.42-9.63-.35.32" fill="#a38568"></path>
              <path d="M187.72,130.3l8.42,9.63c.13-.12.25-.25.37-.38l-8.42-9.63c-.12.13-.24.26-.37.38" fill="#a8896b"></path>
              <path d="M188.09,129.92l8.42,9.63c.13-.15.26-.31.38-.47l-8.42-9.63c-.12.16-.25.32-.38.47" fill="#ad8d6e"></path>
              <path d="M188.47,129.45l8.42,9.63a4.94,4.94,0,0,0,.47-.75l-8.42-9.63a5.48,5.48,0,0,1-.47.75" fill="#b39271"></path>
              <path d="M188.94,128.7l8.42,9.63a5,5,0,0,0,.43-1.08,2.68,2.68,0,0,0,.07-.27l-8.42-9.64c0,.09,0,.18-.07.28a5.17,5.17,0,0,1-.43,1.08" fill="#b89675"></path>
              <path d="M189.44,127.34l8.42,9.64a4,4,0,0,0,.07-.75l-8.42-9.63a3.78,3.78,0,0,1-.07.74" fill="#b39271"></path>
              <path d="M189.51,126.6l8.42,9.63a2.42,2.42,0,0,0,0-.47l-8.42-9.63a2.42,2.42,0,0,1,0,.47" fill="#ad8d6e"></path>
              <path d="M189.47,126.13l8.42,9.63a2.21,2.21,0,0,0-.08-.37l-8.42-9.64a2.33,2.33,0,0,1,.08.38" fill="#a8896b"></path>
              <path d="M189.39,125.75l8.42,9.64a3,3,0,0,0-.12-.32l-8.42-9.64a3,3,0,0,1,.12.32" fill="#a38568"></path>
              <path d="M189.27,125.43l8.42,9.64a2.69,2.69,0,0,0-.16-.29l-8.42-9.64a2.69,2.69,0,0,1,.16.29" fill="#9e8164"></path>
              <path d="M189.11,125.14l8.42,9.64a2.48,2.48,0,0,0-.19-.26l-8.42-9.64a2.48,2.48,0,0,1,.19.26" fill="#997d61"></path>
              <path d="M188.92,124.88l8.42,9.64,0,0-8.42-9.64,0,0" fill="#94795e"></path>
            </g>
          </g>
        </g>
        <path d="M189.83,140.31l0,0a3.25,3.25,0,0,1-.19-.6s0,0,0-.07a2.52,2.52,0,0,1,0-.62c0-.11,0-.22,0-.34a4.41,4.41,0,0,1,.1-.58,5.32,5.32,0,0,1,.39-1c.06-.12.13-.24.2-.36s.15-.25.23-.37.3-.41.46-.6h0a5.76,5.76,0,0,1,.61-.6l.06-.06a8.16,8.16,0,0,1,.66-.5l.07-.05a6.66,6.66,0,0,1,.69-.38l.13-.06a5.1,5.1,0,0,1,.74-.28,4.22,4.22,0,0,1,.86-.17,2.82,2.82,0,0,1,2.5.82l-8.42-9.64a2.85,2.85,0,0,0-2.5-.82,5,5,0,0,0-.86.17h0c-.2.06-.39.13-.59.21l-.13.06-.13.07-.21.09-.41.24-.06.05-.08,0-.25.17c-.12.09-.25.18-.36.28l0,0-.06.06-.25.23a4.17,4.17,0,0,0-.36.37h0c-.13.15-.26.31-.38.47l-.08.12-.23.37-.16.26a.42.42,0,0,0,0,.1,5.41,5.41,0,0,0-.39,1,2.68,2.68,0,0,0-.07.27c0,.11,0,.2,0,.31s0,.22,0,.33,0,.07,0,.11a2.42,2.42,0,0,0,0,.47.11.11,0,0,0,0,0s0,.05,0,.07l.06.25a3,3,0,0,0,.12.32v0s0,0,0,0a1.71,1.71,0,0,0,.13.23,2.48,2.48,0,0,0,.19.26l0,0,8.42,9.64A2.7,2.7,0,0,1,189.83,140.31Z" fill="#20c8e0"></path>
        <path d="M192.68,141.66c-2.24.23-3.57-1.38-3-3.59a6.36,6.36,0,0,1,5.11-4.4c2.24-.23,3.57,1.37,3,3.58A6.38,6.38,0,0,1,192.68,141.66Z" fill="#1aabc2"></path>
        <path d="M192.27,140.39a1.44,1.44,0,0,1-1.17-.47,1.71,1.71,0,0,1-.15-1.51,5.08,5.08,0,0,1,4-3.46h.28a1.46,1.46,0,0,1,1.17.46,1.74,1.74,0,0,1,.15,1.52,5.05,5.05,0,0,1-4,3.45Z" fill="#919191"></path>
      </g>
      <path d="M168.64,130.23c2.1-.33,4.9.91,6.46,1.45s4.1-2.42,5.13-2.42,1.24,1.51.54,2.64-4.16,4.69-4.05,5.44a6.59,6.59,0,0,0,1.4,3.24c1,1.29,4.26,5.77,4,6a9.92,9.92,0,0,1-4.85,1.14c-2.11-.11-4.16-2.86-4.21-2a3.2,3.2,0,0,0,.86,2.64c.76.6-1,.87-2,.06s-2.16-4.15-2.91-5.72-3.61-5.17-3.18-9.27S168.64,130.23,168.64,130.23Z" fill="#ffd0a2"></path>
      <path d="M163.3,39.07c-3.78.43-7,6.14-4.21,11.53a23.13,23.13,0,0,0,6.37,7.87l12,.43,10-5.6,1.7-4.4c2,1,5.09-.13,4-5.63s-8-13.69-17.14-14.77S162.22,37.23,163.3,39.07Z" fill="#966d47"></path>
      <path d="M169.09,44.7c0,2.34-4.44,8.89-3.72,12-3.07-2.27-5.17-1.46-4.61,2.18s5.83,3.48,6.47,2.59c4.13,8.41,10,12.29,14.07,10.67s7.12-9.86,8-13.18.24-10.43-.16-10.11a3.38,3.38,0,0,1-2.27-.8C184.78,50.44,173.46,48.9,169.09,44.7Z" fill="#ffd0a2"></path>
      <path d="M151.44,76.48c-7.19,8.73-7.33,33.85-5,41.08s19.3,17.14,19.3,17.14a10.16,10.16,0,0,1,3.88-4.74c-.75-2.05-7-11.54-8.95-14.24s-4.64-.43-2.91-5.82,4.85-23.39,2.16-29S153,74.65,151.44,76.48Z" fill="#fff"></path>
      <polygon points="73.38 180.2 73.38 190.55 283.84 310.88 283.84 299.23 73.38 180.2" fill="#cfcfcf"></polygon>
      <polygon points="389.5 238.85 283.84 299.23 283.84 310.88 389.5 251.79 389.5 238.85" fill="#919191"></polygon>
      <path d="M291.07,272.38c-.61,2.92-7.29,4-14.92,2.41s-13.32-5.25-12.71-8.17,7.29-4,14.92-2.42S291.68,269.45,291.07,272.38Z" fill="#e3e3e3" style="mix-blend-mode:multiply"></path>
      <path d="M284,256.53a9.08,9.08,0,0,0-.39-2c-.07-.24-.17-.53-.25-.75a1.34,1.34,0,0,0-.07-.18l0-.07v0l-.15-.34v0c-.1-.25-.27-.58-.39-.81s-.21-.38-.31-.54a11,11,0,0,0-3.26-3.42A7.84,7.84,0,0,0,276.3,247l-.11,0h0l-.08,0c-.17-.06-.4-.12-.57-.16l-.52-.11-.3-.06.08,0-.31,0a7.54,7.54,0,0,0-1.47-.12h-.67l-.37,0-.52.06h-.07a10.81,10.81,0,0,0-3.21.93l-.25.12-.26.14h0l-.24.13-.06,0,0,0-.32.18-.18.12-.12.07c-.26.18-.49.33-.74.53h0l-.49.41a10.78,10.78,0,0,0-2.08,2.42l0,.08c-.06.1-.23.37-.43.76h0v0l-.28.59c-.1.24-.23.56-.32.81s-.15.45-.21.64l-.06.22a11,11,0,0,0-.37,2.81V258a11.72,11.72,0,0,0,.19,1.77h0a12.1,12.1,0,0,0,.33,1.32l.09.27a11.05,11.05,0,0,0,2.65,4.24l.1.11h0a7.45,7.45,0,0,0,.58.53l.06,0,.22.18.16.13.43.31h0c.2.14.4.27.61.39h0a9.38,9.38,0,0,0,1.08.57l.08,0a10.88,10.88,0,0,0,3.48.92h0l.38,0h.14l.48,0h.22a7,7,0,0,0,.78,0h0l.51-.05.51-.07.56-.11.13,0a8.21,8.21,0,0,0,1.09-.31l.49-.19.24-.1.14-.06.33-.15.1,0,.5-.27a2.25,2.25,0,0,0,.21-.12l0,0,.58-.37c.18-.12.42-.3.59-.43a9.91,9.91,0,0,0,.91-.79l0,0c.18-.17.34-.34.49-.51l0,0,0,0,.13-.14.29-.35.12-.16a10,10,0,0,0,.81-1.21l.05-.1a8.9,8.9,0,0,0,.62-1.29h0l.06-.14,0-.09c.06-.15.12-.33.18-.52v0l.06-.2,0-.09a1.6,1.6,0,0,0,.05-.21l.08-.26a9.26,9.26,0,0,0,.25-1.47c0-.07,0-.13,0-.2v-.08c0-.27,0-.63,0-.9v0C284.06,257.41,284.05,257,284,256.53Zm-14.52-9.3h0l.06,0,.05,0,.2-.08.05,0,.1,0,.21-.08.14,0,.21-.06.15,0,.21-.05h0l.11,0,.12,0,.12,0a8.27,8.27,0,0,1,5.44.82l.13.09h.06l0,0h0l.1.08H277l0,0,.1.08h0l0,0,.05,0,.09.08,0,0h0l.11.12,0,0h0l.09.1,0,0,0,0h0a.86.86,0,0,0,.07.1l0,.06.06.1,0,.05,0,.06h0l0,.08,0,0v0l0,.06s0,0,0,0v0s0,.05,0,.07v.05h0s0,.06,0,.08a.13.13,0,0,1,0,.06.28.28,0,0,1,0,.09.09.09,0,0,1,0,.05c0,.05,0,.09,0,.14s0,.11,0,.16h0v0h0v0s0,.07,0,.11h0V250s0,.06,0,.09v0a.14.14,0,0,0,0,.06,1,1,0,0,1,0,.1l0,.1,0,0h0v0a.41.41,0,0,1-.05.09v0l0,0a.41.41,0,0,1-.07.11l0,0h0l-.1.12v0l-.08.09h0l0,0-.08.09,0,0,0,0-.1.09h0l-.06.05-.09.07-.06.05-.1.07-.07.05-.32.2-.22.11-.06,0-.14.07-.27.11-.19.08-.09,0-.18,0-.08,0h0l-.17.05-.12,0-.17,0-.11,0h0l-.16,0h-.15l-.17,0h-.12l-.21,0h-.07l-.29,0-.35,0H272a1.07,1.07,0,0,1-.25,0l-.18,0-.21,0a.9.9,0,0,1-.16,0h0l-.19,0-.13,0-.07,0-.17-.05-.1,0-.09,0-.17-.06-.07,0,0,0-.06,0h0l-.17-.07,0,0h0l0,0-.05,0-.19-.09h-.05l0,0h0l-.28-.16-.12-.07-.09-.06-.08-.06-.08-.06-.08-.06-.08-.06-.07-.06-.06-.05,0,0-.06,0-.05-.05,0,0,0,0,0,0,0,0h0l-.1-.12,0-.05a.61.61,0,0,1-.07-.1l0,0v0l-.06-.11h0v0l0,0a.61.61,0,0,0-.05-.12v0a.3.3,0,0,0,0-.1.14.14,0,0,0,0-.06h0v0s0-.05,0-.08,0,0,0,0v0h0s0-.06,0-.09v0h0v-.16a1,1,0,0,1,0-.25v-.05l0-.12v0s0-.09,0-.14,0,0,0,0a1,1,0,0,0,0-.1.08.08,0,0,0,0,0,.16.16,0,0,0,0-.07s.05-.09.07-.14h0l0,0,.09-.12,0,0,0,0,.1-.12,0-.05.12-.12,0,0,0,0,.13-.12,0,0,0,0,.15-.12.06,0,.15-.11,0,0,0,0,.22-.13Z" fill="#ebf7ff"></path>
      <path d="M278.09,249.44h0a.09.09,0,0,0,0-.05.28.28,0,0,0,0-.09.13.13,0,0,0,0-.06.13.13,0,0,0,0-.06h0v0a.06.06,0,0,1,0,0,.19.19,0,0,1,0-.07V249l0,0h0v0h0v-.06l0,0,0,0v0h0v-.05h0v-.07l0,0,0,0h0l0,0,0,0h0l0,0v0l0,0h0v0l0,0h0l0,0v0h0l-.05-.05h0v0h0l0,0,0,0h0l0,0,0,0,0,0h0v0h-.06l0,0,0,0h-.07l0,0,0,0h0l0,0,0,0h-.05l0,0,0,0,0,0h-.09l-.05,0h0l-.09-.06-.15-.08-.14-.2.14.2-.13-.07a.53.53,0,0,1,0-.13.49.49,0,0,1,0,.12h0l-.05,0-.09,0-.11-.05-.09,0-.11,0h0l-.07,0-.07,0-.07,0-.08,0-.05,0-.08,0-.07,0h0l0,0-.09,0-.09,0H275l-.06,0h-.09l-.07,0-.1,0h-.13l-.12,0h-.13l-.1,0h-2.88l-.07,0h-.75l-.05,0h-.11l-.06,0h-.21l-.06,0h-.07l-.06,0,0,0,0,0h-.09l0,0h0l-.06,0h0l0,0h0l0,0-.05,0h0v-.11l-.15.19-.05,0-.16.09,0,0,0,0h0l-.07,0,0,0h0l-.08.06,0,0h0l0,0-.06.05-.08.06,0,0-.05,0a.27.27,0,0,1-.08.07l0,0,0,0-.06.06-.06.06,0,0h0l0,0-.05.06,0,.06,0,0,0,0-.05.08,0,0h0a.3.3,0,0,0,0,.08l0,.05,0,0v0h0l0,0a.08.08,0,0,1,0,0,1,1,0,0,1,0,.1s0,0,0,0,0,.1,0,.14v0l0,.12v.05a.17.17,0,0,0,0,.07h0a.91.91,0,0,0,0,.17v.13h0v0h0v.07h0v0h0v0h0V250h0v.09h0v.13h0a.08.08,0,0,1,0,0l0,0v0h0v0l0,0v0h0v0h0v0l0,0h0l0,0h0v0a.1.1,0,0,1,0,.05l0,0h0v0l0,0,0,0,0,0v0h0l0,0,0,0h0l0,0,0,0,0,0,0,0,0,0h0l0,0,0,0h0l0,0,.06,0,.05,0,0,0h0a.1.1,0,0,0,0,0l.05,0,0,0h0l.08,0,.08.06.09.06,0,0h0l.07,0,.17.1h.28l0,0h3.94l.29,0h0l.17,0h.17l.09,0h.24l.09,0h.15l.09,0,.09,0H275l.06,0,.1,0h0l.09,0h.05l.07,0,.1,0,.06,0h0l.07,0,.19-.08.05,0h0l.21-.09h0l.14-.07,0,0h0l.18-.1h0l.26-.16h0l.06,0,.07-.05.1-.07.06-.05h0l0,0,.08-.07h0l.05,0,.07-.07h0l0,0,0,0,0,0,0,0,0,0,0,0,0,0h0l0,0h0v0h0l0,0,0,0v0h0l0-.07,0,0v0h0l0,0,0,0h0v0h0l0,0h0v0h0l0,0h0v0h0v0h0v-.06h0v0h0v0h0V250h0v0h0v-.06h0v0h0v0h0v-.06h0v0h0s0-.08,0-.11S278.09,249.49,278.09,249.44ZM275,246.86l.1,0-.13,0Zm-1-.22.1,0-.19,0Zm-.27,0h0Zm-.84-.05h0Zm3.36.91,0,.1h0v0h0l-.05.1h0l0,0a.41.41,0,0,1-.05.09l0,0L276,248h0l0,0-.09.1,0,0-.09.09h0l0,.05-.05,0a312056963983.18,312056963983.18,0,0,0-.1.08l-.06,0-.05,0-.07,0a.1.1,0,0,1-.05,0l-.1.06a3.87,3.87,0,0,1-.78.32.29.29,0,0,1-.1,0l-.21.06-.08,0-.26.05h-.11l-.23,0h-1.23l-.14,0h0l-.17,0-.13,0h-.05l-.13,0-.11,0-.08,0-.12,0-.08,0h-.09l-.13,0,0,0-.05,0h0l-.05,0-.14-.06h0l0,0h-.08l-.23-.12a2,2,0,0,1-.95-1.11,3.62,3.62,0,0,1,.9-.48l.15-.05.09,0,.22-.07.12,0,.19,0h.06l.47-.09a8.32,8.32,0,0,1,1.18-.08h.35l1,.1.2,0,.15,0,.12,0,.15,0,.44.12.15.05.2.09a2.53,2.53,0,0,1,.37.18l.17.1.2.14Z" fill="#fff"></path>
      <path d="M276.34,238.72v.05s0,0,0,0a.11.11,0,0,1,0,.05v0a.11.11,0,0,1,0,.05v0l0,.05s0,0,0,.05l0,0,0,.05,0,0,0,0,0,.06a.08.08,0,0,0,0,0l-.05.06,0,0-.08.1h0a.47.47,0,0,1-.1.1s0,0,0,0l-.05,0a.1.1,0,0,0-.05,0l-.06,0-.05,0-.06,0-.06,0-.06,0-.1.06h0l-.24.12-.06,0-.25.1h0l-.21.07-.17,0-.14,0-.18,0-.16,0h-.08l-.27,0h0l-.29,0h-.91l-.17,0-.15,0-.19,0-.24,0h0l-.26-.07-.07,0a1.14,1.14,0,0,1-.26-.09l-.18-.08-.1,0-.26-.14a1.7,1.7,0,0,1-1-1.4l0,8.52a1.68,1.68,0,0,0,1,1.4l.26.14.09,0,.18.08h0l.25.09.08,0,.09,0,.16,0h0l.19,0h.06l.19,0h.14l.18,0h.9l.29,0h0l.27,0h.14l.1,0,.17,0,.15,0,.17,0,.06,0,.15,0h0l.25-.11,0,0,.24-.12.08-.05h0l.07,0,.06,0,.05,0,.06,0,.05,0a.1.1,0,0,0,0,0l.05,0,0,0h0l.1-.1h0L276,248h0l0,0,0-.06,0,0,0-.06,0,0v0l0-.06,0,0a.08.08,0,0,1,0-.05v0s0,0,0-.05,0,0,0-.05a.43.43,0,0,0,0,0v0h0a.07.07,0,0,1,0,0v-.05a.11.11,0,0,0,0,0v-.07l0-8.51Z" fill="#ebf7ff"></path>
      <path d="M275.85,235.25a6.43,6.43,0,0,0-5.84-.06c-1.64.92-1.67,2.43-.08,3.38a6.43,6.43,0,0,0,5.84.06C277.4,237.71,277.44,236.2,275.85,235.25Z" fill="#ebf7ff"></path>
      <path d="M270.1,237.22a2.92,2.92,0,0,0-.91.76,3,3,0,0,0,.74.59,6.43,6.43,0,0,0,5.84.06,2.87,2.87,0,0,0,.9-.76,3,3,0,0,0-.73-.59A6.43,6.43,0,0,0,270.1,237.22Z" fill="#dce8f0"></path>
      <path d="M263.38,258.61c0,.23.06.5.11.8h0c.07.34.16.72.28,1.11,0,.08.05.15.08.24a9.37,9.37,0,0,0,2.23,3.58.76.76,0,0,1,.09.09h0c.15.15.32.3.49.45l.05,0,.19.16.14.1.36.27h0l.51.33h0a7.39,7.39,0,0,0,.92.48l.07,0a9.06,9.06,0,0,0,2.94.78h0l.31,0h.12l.41,0h.18l.66,0h0l.44-.05.43-.06.46-.09.12,0a7.15,7.15,0,0,0,.92-.27l.42-.16.2-.08.12-.05.28-.13.08,0,.43-.22.17-.1,0,0,.48-.31a6,6,0,0,0,.51-.37,8,8,0,0,0,.77-.67l0,0c.15-.14.28-.29.41-.43l0,0,0,0,.11-.12c.08-.1.17-.2.24-.3a1.47,1.47,0,0,0,.1-.13,8.8,8.8,0,0,0,.69-1l0-.08a7.84,7.84,0,0,0,.53-1.1h0s0-.09.05-.13l0-.07c0-.13.1-.28.15-.44v0a1.09,1.09,0,0,0,.05-.17l0-.07c0-.07,0-.13,0-.18a1.94,1.94,0,0,0,.06-.22,7.13,7.13,0,0,0,.22-1.25Z" fill="#5bb0c4"></path>
      <path d="M279.58,254.88a14.61,14.61,0,0,0-13.27-.13c-3.71,2.08-3.79,5.52-.18,7.68a14.59,14.59,0,0,0,13.26.13C283.1,260.48,283.19,257,279.58,254.88Z" fill="#65c2d9"></path>
      <path d="M269,257.2a1.81,1.81,0,1,1-1.81-1.81A1.81,1.81,0,0,1,269,257.2Z" fill="#a0dbe8"></path>
      <path d="M272,253.67a1.44,1.44,0,1,1-2.87,0,1.44,1.44,0,0,1,2.87,0Z" fill="#a0dbe8"></path>
      <path d="M273.78,256.7a1,1,0,1,1-1-1A1,1,0,0,1,273.78,256.7Z" fill="#a0dbe8"></path>
      <path d="M277.09,259.32a1.41,1.41,0,1,1-1.4-1.41A1.4,1.4,0,0,1,277.09,259.32Z" fill="#a0dbe8"></path>
      <path d="M274.53,247.87a1.44,1.44,0,1,1-1.43-1.44A1.43,1.43,0,0,1,274.53,247.87Z" fill="#a0dbe8"></path>
      <path d="M280.3,252.55a1.19,1.19,0,1,1-1.18-1.19A1.18,1.18,0,0,1,280.3,252.55Z" fill="#a0dbe8"></path>
      <path d="M283.62,254.53c-.07-.24-.17-.53-.25-.75a1.34,1.34,0,0,0-.07-.18l0-.07v0l-.15-.34v0c-.1-.25-.27-.58-.39-.81s-.21-.38-.31-.54a11,11,0,0,0-3.26-3.42,7.92,7.92,0,0,0-2.84-1.41l0-7.73-.17,0v0l0,.06a.08.08,0,0,0,0,0l-.05.06,0,0-.08.1h0a.47.47,0,0,1-.1.1s0,0,0,0l-.05,0a.1.1,0,0,0-.05,0l-.06,0-.05,0-.06,0-.06,0-.06,0-.1.06h0l-.24.12-.06,0-.25.1h0l-.21.07-.17,0-.14,0-.18,0-.16,0h-.08l-.27,0h0l-.29,0h-.91l-.17,0-.15,0-.19,0-.24,0h0l-.26-.07-.07,0-.23-.08-1,.2c1.54,1.68,5,2,5,2l.07,6.22c.87,0,5.44,5.93,4,12.26s-6.19,8.07-10.86,6.88l.08,0a10.88,10.88,0,0,0,3.48.92h0l.38,0h.14l.48,0h.22a7,7,0,0,0,.78,0h0l.51-.05.51-.07.56-.11.13,0a8.21,8.21,0,0,0,1.09-.31l.49-.19.24-.1.14-.06.33-.15.1,0,.5-.27a2.25,2.25,0,0,0,.21-.12l0,0,.58-.37c.18-.12.42-.3.59-.43a9.91,9.91,0,0,0,.91-.79l0,0c.18-.17.34-.34.49-.51l0,0,0,0,.13-.14.29-.35.12-.16a10,10,0,0,0,.81-1.21l.05-.1a8.9,8.9,0,0,0,.62-1.29h0l.06-.14,0-.09c.06-.15.12-.33.18-.52v0l.06-.2,0-.09a1.6,1.6,0,0,0,.05-.21l.08-.26a9.26,9.26,0,0,0,.25-1.47c0-.07,0-.13,0-.2v-.08c0-.27,0-.63,0-.9v0c0-.26,0-.65-.05-1.14A9.08,9.08,0,0,0,283.62,254.53Zm-8.2-6,0,0,0,0Zm.12-.07h0l0,0Zm.11-.08h0l0,0h0Zm.1-.08h0l0,0Zm.28-.3Zm.09-.14v0Zm.07-.12h0Zm.09-.25Z" fill="#e3e3e3" style="mix-blend-mode:multiply"></path>
      <path d="M278.07,237.91v-.12a2.72,2.72,0,0,0,0-.43h0a2.92,2.92,0,0,0-1.26-1.89,5.53,5.53,0,0,0-2.13-.94,5.73,5.73,0,0,0-.61-.11h-.37l-.35,0h-.73l-.36,0h-.07a6.2,6.2,0,0,0-.93.14l-.39.1h-.07l-.09,0c-.2.06-.39.13-.57.2l0,0-.07,0-.1,0-.11.05h0a3.62,3.62,0,0,0-.36.19l-.2.12-.06,0,0,0-.2.15,0,0-.26.23h0a1.21,1.21,0,0,0-.16.16,2.91,2.91,0,0,0-.26.33l0,0-.11.19h0v0h0c0,.07,0,.11-.08.16a1.65,1.65,0,0,0-.09.21h0c0,.08-.05.15-.06.18a.3.3,0,0,0,0,.1,2.31,2.31,0,0,0,0,1.28h0s0,0,0,.06a1.8,1.8,0,0,0,.08.21,2.15,2.15,0,0,0,.14.3v0l0,0c0,.05.06.09.09.15s.1.15.27.35h0v0l.15.16h0a2.35,2.35,0,0,0,.28.25,4,4,0,0,0,1.16.68h0l.28.11h0l.32.11h0a6.86,6.86,0,0,0,.69.17h0l.15,0,.17,0h0l.11,0,.16,0a8.46,8.46,0,0,0,.91.05h.26l.37,0h0l.36,0,.15,0h0l.2,0,.35-.07h0l.13,0h0l.16,0a6.19,6.19,0,0,0,.68-.23l.29-.12.05,0H276l0,0,.21-.11h0l.35-.21c.11-.08.25-.18.35-.27l.11-.1.08-.07.07-.08.11-.1.17-.22,0,0h0l.05-.08h0v0c.05-.08.1-.14.13-.2l.06-.12v0s0,0,0,0v0l0,0v-.11l0-.06,0-.07,0,0v0l0,0h0a2.46,2.46,0,0,0,.07-.29v0h0v0h0v0a.28.28,0,0,1,0-.09V238h0Zm-1.85-2.41.16.14a2.51,2.51,0,0,1,.45.56,2.35,2.35,0,0,1,.18.88,2.19,2.19,0,0,1-1.24,1.55l-.27.14a6.16,6.16,0,0,1-.78.29,6.49,6.49,0,0,1-4.79-.49c-1.59-.95-1.56-2.46.08-3.38a6.43,6.43,0,0,1,5.84.06l.14.09Z" fill="#fff"></path>
      <path d="M425.41,217.76c.55-1.35.65-2.89-.65-5.33s.4-4.89-.35-6.68-1-3.39,0-2.84,1.55.7,2.29,2.74,2.94-.1,3.49-1.14,4.53-11.56,5.43-10-.2,4.79-.25,5.33c.7-1.14,1-2.89,1.35-2.39a6.57,6.57,0,0,1,.29,3.14c.65,1.59.35,6.23-.44,8.72s-8.42,10.31-8.42,11.06c-.5.79-2.54.05-2.54.05Z" fill="#ffd0a2"></path>
      <path d="M402,223a64.18,64.18,0,0,1,11.42,9.34c.34-2.77,11.76-16.43,11.76-16.43,3.46,1.56,4,3.81,4,3.81-.52,2.59-12.28,25.94-14.36,26.11s-11.41-2.59-13.49-5.71S402,223,402,223Z" fill="#fff"></path>
      <path d="M426.65,392.12,404.45,380a13.7,13.7,0,0,0-13.31.07l-32,18a2.2,2.2,0,0,0,0,3.84l23.58,13.17a13.69,13.69,0,0,0,13.93-.35l30.08-18.79A2.2,2.2,0,0,0,426.65,392.12Z" fill="#e6e6e6" style="mix-blend-mode:multiply"></path>
      <path d="M413,318.12c-1.65,3.6-3.89,8.51-.68,12.91s3.88,14.2,2.08,27.15-2.24,28.1-1.46,31.94a12.16,12.16,0,0,1,.26,2.12,3.22,3.22,0,0,1-5.12,2.64c-6.79-4.93-12.57-9.27-11.35-12.25,1.33-3.27,11.4,3.63,11,2.2-1.15-9.79-5.54-48-7.68-53.7s-2.26-13.93-2.75-14.24S413,318.12,413,318.12Z" fill="#f0c499"></path>
      <path d="M403.15,383.17c-1.4.71-1,2.93,2.05,4.72,4.2,2.47,4.07,3.21,7.48.13a15.72,15.72,0,0,0,.25,2.1,12.16,12.16,0,0,1,.26,2.12,3.22,3.22,0,0,1-5.12,2.64c-6.79-4.93-12.57-9.27-11.35-12.25C397.41,380.94,400.44,382,403.15,383.17Z" fill="#333"></path>
      <path d="M386.31,333.34c-1.65,3.6-3.89,8.51-.68,12.91s3.88,14.2,2.08,27.15-2.24,28.1-1.46,31.94a12.38,12.38,0,0,1,.26,2.13,3.22,3.22,0,0,1-5.12,2.63c-6.78-4.93-12.57-9.27-11.35-12.24,1.34-3.27,11.4,3.62,11,2.19-1.15-9.79-5.54-48-7.68-53.7s-2.26-13.93-2.75-14.24S386.31,333.34,386.31,333.34Z" fill="#f0c499"></path>
      <path d="M376.48,398.39c-1.4.72-1,2.93,2,4.73,4.2,2.46,4.07,3.2,7.48.12a17.58,17.58,0,0,0,.25,2.1,12.38,12.38,0,0,1,.26,2.13,3.22,3.22,0,0,1-5.12,2.63c-6.78-4.93-12.57-9.27-11.35-12.24C370.73,396.16,373.76,397.2,376.48,398.39Z" fill="#333"></path>
      <path d="M373.47,262.3c-4,17.82-6.74,73.86-5.36,78.7,10.38,10.38,45.84-2.59,46.7-15.91S412,282.71,406,270.78s.69-27.33-.52-36.84-2.07-11.07-5.36-12.11-15.39,5-15.39,5L379,229.79C376.65,233.13,373.47,262.3,373.47,262.3Z" fill="#f5f5f5"></path>
      <polygon points="318.65 247.37 339.29 287.15 359.81 276.54 342.17 242.41 318.65 247.37" fill="#383838"></polygon>
      <polygon points="322.15 246.73 340.05 242.96 355.45 272.76 339.84 280.83 322.15 246.73" fill="#fff4eb"></polygon>
      <path d="M340.87,270.61c-1.64-2.25-2.07-2.94-4.93-2.94s-4.49-3.72-5.45-3.38-.95,3.29.61,4.85-2.16.17-2.68,1.12,1,3,2.16,4.58.61,3.89,6.05,2.94,6.49-3.28,6.49-3.28Z" fill="#ffd0a2"></path>
      <path d="M390.25,222.35c-5,0-11.24,7.44-11.24,7.44,5.19-2.08,6.75-2.08,10.9-.52s11.58-1.39,11.93-4.67-5.71-4-5.71-4Z" fill="#1db1d1"></path>
      <path d="M379,190c-2.77,8.3-.87,24.9,5.71,25.25,5.46.29,4.11,6.91,3,9.33a1.38,1.38,0,0,0,.49,1.72c4.75,3.05,10.78-.76,9.82-4.13-1-3.64-.18-10-.18-10l4.15-8.31a38.6,38.6,0,0,1-1.38-5c-.35-2.08-3.29-5.88-3.29-5.88l-10.72-2.08Z" fill="#ffd0a2"></path>
      <path d="M381.09,183.78c-2.51-1.21-6.92,1.56-5.19,5.36s9.16,5.88,13.57,7.7,4.67,8,4.67,8c3.12-2.51,5.11-1.21,5,1s-2.68,3.37-4.5,2.94c-1.12,6.92,4.24,9.6,8.56,7.18s9.26-10.72,6.75-17.73S381.09,183.78,381.09,183.78Z" fill="#424242"></path>
      <path d="M388.06,172.08c-7.38,4.72-7.84,13.95-7.49,15,3,6.34,15.79,17.52,30.09,12.56,2.65-4.49,1.85-15.79,1.85-16.6C411,178.07,402.24,169.08,388.06,172.08Z" fill="#1db1d1"></path>
      <path d="M412.51,183.28V183c-1.5-5-10.26-13.95-24.44-11-3.08,3.74,6.29,12.73,14.89,14C408.62,187,411.48,185.42,412.51,183.28Z" fill="#2cbcdb"></path>
      <path d="M408.76,203.24c5.07-.75,7.26,3.2,7.44,8.73s-9.26,11.07-14.45,3.81S405.82,203.67,408.76,203.24Z" fill="#383838"></path>
      <path d="M378.66,230.82c-5.7,5-16.08,29.24-17,29.58-3.63,1.9-17.64,9.69-21.27,9.17-.52,4.49,1.56,6.4,1.56,6.4s23.86-1.91,28.71-7.61S389.91,226,378.66,230.82Z" fill="#fff"></path>
    </g>
  </g>
</svg>
